@startuml

class Client

interface Aggregate {
+createIterator():Iterator
}

class ConcreteAggregate {
+createIterator():Iterator
}

interface Iterator {
+firstItem():void
+nextItem():void
+isDone():void
+currentItem():void
}

class ConcreteIterator {
}

Aggregate <|-- ConcreteAggregate
Iterator <|-- ConcreteIterator
ConcreteAggregate --> ConcreteIterator
Client --> ConcreteAggregate

@enduml